<?xml version="1.0" standalone="no"?>
<!DOCTYPE svg PUBLIC "-//W3C//DTD SVG 20010904//EN"
 "http://www.w3.org/TR/2001/REC-SVG-20010904/DTD/svg10.dtd">
<svg version="1.0" xmlns="http://www.w3.org/2000/svg"
 width="500.000000pt" height="500.000000pt" viewBox="0 0 500.000000 500.000000"
 preserveAspectRatio="xMidYMid meet">

<g transform="translate(0.000000,500.000000) scale(0.100000,-0.100000)"
fill="#000000" stroke="none">
<path d="M3829 4719 c-19 -16 -40 -29 -46 -29 -7 0 -13 -9 -13 -20 0 -10 -9
-24 -19 -30 -11 -5 -26 -23 -35 -40 -8 -17 -11 -28 -6 -25 12 8 17 -15 14 -65
-4 -50 -4 -60 -5 -92 -2 -115 -5 -145 -16 -141 -7 3 -10 -3 -8 -14 2 -10 4
-33 4 -50 1 -23 6 -33 16 -33 9 0 27 -11 40 -24 20 -20 23 -29 16 -53 -5 -16
-4 -39 1 -53 25 -65 47 -173 44 -217 -6 -86 -29 -164 -54 -181 -34 -22 -65 -3
-113 70 -22 35 -47 66 -55 71 -8 4 -14 15 -14 23 0 8 -7 29 -16 46 -20 39 -50
147 -59 213 -9 65 -26 91 -65 98 -17 4 -42 19 -55 33 -20 22 -37 28 -91 33
-57 6 -69 11 -87 35 -44 61 -154 68 -197 13 -28 -35 -65 -42 -90 -17 -11 11
-17 20 -12 20 4 0 2 4 -3 8 -6 4 -19 26 -29 50 -11 23 -25 47 -33 54 -8 6 -20
26 -27 43 -12 28 -20 33 -67 40 -94 13 -141 6 -211 -31 -27 -14 -48 -23 -48
-19 0 3 -11 -2 -25 -11 -14 -9 -25 -14 -25 -10 0 3 -24 -3 -52 -14 -29 -10
-67 -21 -84 -23 -36 -5 -105 -39 -123 -61 -7 -8 -37 -22 -67 -32 -30 -9 -54
-21 -54 -26 0 -5 -4 -7 -8 -4 -5 3 -18 -7 -29 -22 -13 -17 -48 -39 -92 -56
-43 -18 -73 -36 -77 -48 -3 -10 -10 -16 -15 -13 -5 4 -9 1 -9 -4 0 -6 5 -11
11 -11 5 0 7 -5 4 -11 -4 -6 -9 -8 -12 -5 -3 3 -12 -2 -21 -10 -11 -12 -17
-13 -22 -3 -5 8 -10 5 -15 -10 -3 -11 -11 -21 -17 -21 -5 0 -8 -7 -4 -15 3 -8
1 -15 -4 -15 -6 0 -10 6 -10 13 0 6 -5 4 -11 -6 -6 -9 -14 -15 -20 -12 -5 4
-9 -1 -9 -9 0 -9 -5 -16 -12 -16 -9 0 -9 -3 0 -12 7 -7 12 -17 12 -23 0 -6
-39 -43 -86 -81 -107 -86 -235 -220 -303 -318 -56 -82 -124 -197 -118 -202 2
-2 19 24 38 58 48 87 172 252 238 318 124 124 303 250 455 323 207 98 605 168
809 143 l58 -8 -38 -28 c-21 -15 -53 -41 -71 -58 -32 -28 -40 -29 -150 -35
-212 -12 -386 -53 -560 -133 -254 -118 -480 -320 -615 -551 -47 -79 -50 -82
-124 -117 -52 -25 -79 -33 -83 -25 -5 7 -9 5 -14 -6 -10 -28 -7 -35 15 -35 20
0 21 -4 14 -47 -8 -54 -29 -82 -95 -124 -25 -16 -42 -29 -38 -29 5 0 -1 -9
-12 -20 -19 -19 -36 -20 -372 -22 l-353 -3 -3 -418 -2 -419 32 -32 33 -33 323
-5 c190 -3 327 -9 333 -15 5 -5 12 -33 16 -61 5 -44 3 -53 -12 -58 -10 -4 -27
-1 -39 6 -46 29 -110 17 -165 -30 -27 -23 -43 -80 -29 -105 7 -12 3 -30 -16
-67 -22 -42 -26 -63 -26 -133 0 -78 2 -85 29 -117 86 -97 102 -119 140 -193
22 -44 41 -88 41 -97 0 -10 13 -32 29 -50 15 -18 32 -44 36 -58 12 -39 70
-102 129 -140 30 -19 79 -52 109 -73 65 -46 94 -43 135 11 15 19 36 45 48 56
29 29 48 67 88 171 l34 90 93 -4 c97 -3 139 -13 139 -31 0 -22 84 -116 129
-144 33 -21 57 -29 86 -28 23 1 52 -7 70 -18 16 -10 47 -18 67 -18 44 0 90
-25 111 -61 8 -14 27 -37 42 -51 l27 -25 216 -1 c119 0 226 4 237 9 11 5 32
22 47 38 22 24 35 29 76 29 45 0 51 3 89 45 31 35 47 45 71 45 33 0 42 -17 57
-103 5 -29 16 -45 48 -68 l42 -31 200 4 c147 3 208 8 230 19 l30 14 6 142 c4
78 12 164 19 192 10 44 10 57 -4 92 -9 22 -17 60 -18 83 -2 40 3 49 93 157
192 229 335 456 368 582 l17 62 283 0 283 0 19 24 c16 19 19 41 21 125 1 55 2
137 3 181 4 160 -13 485 -25 500 -10 12 -56 15 -267 15 -157 0 -262 4 -274 10
-11 6 -31 29 -45 51 l-26 41 -19 -21 c-15 -16 -32 -21 -68 -21 -57 0 -67 9
-97 89 -12 31 -27 70 -34 87 -21 49 -7 78 47 102 27 11 57 31 69 44 20 23 54
101 54 127 0 22 -71 101 -91 101 -32 0 -21 24 21 48 23 13 73 27 121 34 44 6
87 18 95 25 10 10 14 40 14 101 0 70 -4 93 -20 117 -28 43 -25 69 14 112 18
21 43 57 55 81 30 60 54 183 49 261 -3 59 -8 72 -45 122 -33 44 -63 69 -154
123 -119 72 -134 85 -144 126 -4 20 -11 25 -38 24 -17 0 -44 3 -58 7 -19 5
-33 0 -60 -22z m-526 -496 c-7 -2 -19 -2 -25 0 -7 3 -2 5 12 5 14 0 19 -2 13
-5z m-476 -29 c-3 -3 -12 -4 -19 -1 -8 3 -5 6 6 6 11 1 17 -2 13 -5z m-534
-21 c-7 -2 -19 -2 -25 0 -7 3 -2 5 12 5 14 0 19 -2 13 -5z m-46 -9 c-3 -3 -12
-4 -19 -1 -8 3 -5 6 6 6 11 1 17 -2 13 -5z m813 -2 c0 -4 -9 -13 -19 -19 -16
-10 -18 -9 -14 8 5 18 33 28 33 11z m-853 -8 c-3 -3 -12 -4 -19 -1 -8 3 -5 6
6 6 11 1 17 -2 13 -5z m1627 -50 c3 -8 2 -12 -4 -9 -6 3 -10 10 -10 16 0 14 7
11 14 -7z m-1859 -24 c-3 -5 -12 -10 -18 -10 -7 0 -6 4 3 10 19 12 23 12 15 0z
m1870 -10 c-6 -9 8 -14 28 -11 5 1 7 -4 4 -11 -2 -7 -10 -12 -16 -10 -7 1 -10
-2 -6 -8 3 -5 2 -10 -3 -10 -11 0 -22 46 -14 55 9 9 14 6 7 -5z m-1945 -25
c-14 -8 -29 -14 -35 -14 -5 0 1 6 15 14 14 8 30 14 35 14 6 0 -1 -6 -15 -14z
m-109 -28 c-10 -9 -11 -8 -5 6 3 10 9 15 12 12 3 -3 0 -11 -7 -18z m59 7 c0
-2 -9 -8 -20 -14 -15 -8 -18 -8 -14 3 4 11 34 21 34 11z m2037 -39 c2 -26 -1
-35 -13 -35 -11 0 -14 6 -9 20 4 14 1 22 -10 26 -13 6 -14 8 -3 15 24 16 33 9
35 -26z m-1359 18 c-16 -2 -40 -2 -55 0 -16 2 -3 4 27 4 30 0 43 -2 28 -4z
m65 0 c-7 -2 -19 -2 -25 0 -7 3 -2 5 12 5 14 0 19 -2 13 -5z m84 1 c-3 -3 -12
-4 -19 -1 -8 3 -5 6 6 6 11 1 17 -2 13 -5z m-877 -9 c0 -2 -10 -9 -22 -15 -22
-11 -22 -10 -4 4 21 17 26 19 26 11z m613 -2 c-7 -2 -19 -2 -25 0 -7 3 -2 5
12 5 14 0 19 -2 13 -5z m-56 -9 c-3 -3 -12 -4 -19 -1 -8 3 -5 6 6 6 11 1 17
-2 13 -5z m-608 -17 c-2 -1 -13 -9 -24 -17 -19 -14 -19 -14 -6 3 7 9 18 17 24
17 6 0 8 -1 6 -3z m502 -10 c-6 -8 -10 -16 -8 -18 1 -2 0 -3 -2 -1 -12 7 -7
32 6 32 12 0 13 -3 4 -13z m1616 -23 c-3 -3 -12 -4 -19 -1 -8 3 -5 6 6 6 11 1
17 -2 13 -5z m-1762 -14 c-3 -5 -13 -10 -21 -10 -8 0 -12 -4 -9 -10 3 -6 -1
-7 -9 -4 -9 3 -16 1 -16 -6 0 -6 -5 -8 -12 -4 -8 5 2 14 27 26 47 21 48 21 40
8z m1862 4 c-3 -3 -12 -4 -19 -1 -8 3 -5 6 6 6 11 1 17 -2 13 -5z m-77 -14 c0
-5 -2 -10 -4 -10 -3 0 -8 5 -11 10 -3 6 -1 10 4 10 6 0 11 -4 11 -10z m-35
-49 c3 -19 8 -38 11 -43 3 -4 -3 -5 -12 -1 -11 4 -15 2 -11 -4 4 -6 1 -16 -7
-22 -14 -12 -14 5 -1 78 7 39 12 37 20 -8z m-1843 22 c-6 -2 -9 -9 -6 -15 3
-5 0 -8 -7 -7 -22 3 -84 -28 -68 -34 11 -4 10 -6 -2 -6 -9 -1 -37 -12 -63 -26
-25 -13 -46 -22 -46 -20 0 12 176 114 195 114 6 0 4 -3 -3 -6z m1889 -22 c6 9
7 2 4 -21 -3 -19 -8 -57 -11 -85 -4 -27 -12 -63 -19 -80 -12 -29 -12 -27 -11
26 2 53 1 57 -20 54 -21 -2 -21 -1 7 27 28 29 31 37 31 86 0 22 0 22 5 1 4
-18 7 -19 14 -8z m-1804 3 c-3 -3 -12 -4 -19 -1 -8 3 -5 6 6 6 11 1 17 -2 13
-5z m-132 -82 c-3 -3 -11 0 -18 7 -9 10 -8 11 6 5 10 -3 15 -9 12 -12z m2076
-15 c-10 -9 -11 -8 -5 6 3 10 9 15 12 12 3 -3 0 -11 -7 -18z m-2163 -36 l34
-6 -64 -55 c-72 -62 -170 -161 -203 -205 -22 -29 -103 -184 -144 -276 -11 -25
-29 -79 -39 -120 l-19 -74 -49 -7 c-27 -3 -66 -7 -88 -7 l-39 -1 7 41 c32 201
215 483 435 672 69 59 64 58 169 38z m1262 -287 c0 -2 -9 -4 -21 -4 -11 0 -18
4 -14 10 5 8 35 3 35 -6z m-710 -4 c0 -5 -7 -10 -16 -10 -8 0 -12 5 -9 10 3 6
10 10 16 10 5 0 9 -4 9 -10z m663 -34 c9 1 15 -1 12 -6 -8 -13 -38 -5 -43 11
-2 9 -1 10 5 3 4 -6 16 -10 26 -8z m-816 -2 c-3 -3 -12 -4 -19 -1 -8 3 -5 6 6
6 11 1 17 -2 13 -5z m213 -28 c0 -2 -8 -10 -17 -17 -16 -13 -17 -12 -4 4 13
16 21 21 21 13z m8 -82 c-122 -19 -162 -30 -251 -75 -75 -38 -187 -116 -187
-131 0 -4 -10 -13 -22 -19 -39 -20 29 47 97 95 121 87 279 143 405 144 31 0
18 -4 -42 -14z m-478 -247 c0 -2 -10 -12 -22 -23 l-23 -19 19 23 c18 21 26 27
26 19z m737 -49 c-16 -24 -116 -182 -225 -358 -36 -58 -72 -112 -79 -121 -23
-27 -15 -49 67 -181 81 -132 89 -148 69 -148 -6 0 -9 7 -5 15 3 8 0 14 -6 12
-7 -1 -45 48 -86 108 -41 61 -78 111 -82 113 -4 2 -29 -32 -56 -75 -69 -113
-69 -113 -131 -113 -29 0 -53 4 -53 8 0 4 16 32 35 62 19 30 58 92 87 138 29
45 77 119 106 165 29 45 74 116 100 157 99 157 104 162 183 202 87 44 97 45
76 16z m-799 -28 c-12 -19 -22 -20 -198 -18 l-185 3 181 2 c146 3 184 6 194
18 18 22 22 18 8 -5z m-810 -17 c-21 -2 -55 -2 -75 0 -21 2 -4 4 37 4 41 0 58
-2 38 -4z m69 1 c-3 -3 -12 -4 -19 -1 -8 3 -5 6 6 6 11 1 17 -2 13 -5z m46 -1
c-7 -2 -19 -2 -25 0 -7 3 -2 5 12 5 14 0 19 -2 13 -5z m854 1 c-3 -3 -12 -4
-19 -1 -8 3 -5 6 6 6 11 1 17 -2 13 -5z m66 -1 c-7 -2 -19 -2 -25 0 -7 3 -2 5
12 5 14 0 19 -2 13 -5z m50 0 c-7 -2 -19 -2 -25 0 -7 3 -2 5 12 5 14 0 19 -2
13 -5z m55 -249 c15 -26 37 -59 48 -73 16 -19 19 -32 13 -48 -5 -13 -12 -23
-17 -23 -5 0 -33 37 -62 83 -30 45 -61 87 -69 94 -13 10 -10 12 22 13 34 0 40
-4 65 -46z m-1728 -143 c0 -88 4 -171 10 -185 21 -56 122 -74 175 -31 l30 25
0 175 0 175 43 0 43 0 -3 -189 c-3 -216 -7 -227 -88 -268 -95 -49 -221 -21
-273 60 -27 40 -27 43 -27 219 l0 178 45 0 45 0 0 -159z m676 142 c90 -43 99
-185 16 -255 l-31 -26 43 -58 c23 -33 50 -71 60 -86 l18 -28 -53 0 -54 0 -53
80 -53 80 -44 0 -45 0 0 -80 0 -80 -45 0 -45 0 0 235 0 235 125 0 c97 0 132
-4 161 -17z m440 1 c19 -9 41 -29 49 -45 19 -36 19 -102 0 -139 -14 -27 -14
-30 15 -59 40 -39 42 -101 5 -151 -38 -51 -70 -60 -221 -60 l-134 0 0 235 0
235 126 0 c96 0 134 -4 160 -16z m482 -21 l-3 -38 -122 -3 -123 -3 0 -59 0
-60 120 0 120 0 0 -40 0 -40 -120 0 -120 0 0 -55 0 -55 125 0 125 0 0 -40 0
-40 -165 0 -165 0 0 235 0 235 166 0 165 0 -3 -37z m808 13 c67 -31 74 -44 39
-73 l-27 -24 -23 21 c-49 46 -155 21 -155 -35 0 -34 29 -52 95 -59 103 -12
153 -64 142 -147 -10 -74 -74 -119 -169 -119 -57 0 -122 25 -151 57 -17 19
-16 20 16 38 32 17 34 17 67 -4 70 -42 163 -18 163 43 0 29 -14 43 -48 50 -11
2 -45 9 -76 16 -79 15 -112 51 -113 121 -1 48 2 54 42 90 63 55 118 62 198 25z
m421 4 c54 -19 93 -45 93 -61 0 -5 -12 -16 -26 -25 -24 -16 -27 -16 -63 4
-106 60 -243 -15 -243 -132 0 -59 27 -105 78 -133 65 -37 137 -30 191 19 21
20 21 20 52 -3 29 -21 30 -24 14 -41 -28 -31 -77 -57 -131 -69 -106 -22 -217
38 -262 143 -50 117 16 257 145 302 56 20 87 19 152 -4z m455 -11 c59 -29 76
-46 104 -101 29 -57 33 -152 8 -201 -27 -53 -75 -96 -131 -117 -64 -24 -93
-25 -160 -5 -180 54 -222 310 -66 406 87 54 163 60 245 18z m433 5 c53 -25 78
-71 78 -141 0 -61 -18 -93 -73 -130 -27 -19 -47 -23 -106 -23 l-74 0 0 -70 0
-70 -33 0 -34 0 -6 221 c-4 121 -4 225 -1 231 12 18 204 4 249 -18z m414 20
c27 -6 31 -10 31 -40 l0 -34 -120 0 -120 0 0 -60 0 -60 115 0 115 0 0 -40 0
-40 -115 0 -115 0 0 -55 0 -55 120 0 120 0 0 -35 0 -35 -160 0 -160 0 0 230 0
230 129 0 c71 0 143 -3 160 -6z m-1066 -729 c-3 -9 -8 -14 -10 -11 -3 3 -2 9
2 15 9 16 15 13 8 -4z m-508 -35 c-3 -5 -20 -19 -38 -30 -32 -22 -32 -22 3 9
37 32 45 37 35 21z m483 -17 c-23 -49 -33 -61 -41 -56 -6 3 -7 1 -3 -5 14 -24
-111 -172 -219 -259 -65 -52 -190 -135 -235 -155 -192 -87 -266 -102 -490
-102 -195 -1 -274 12 -420 65 -126 46 -302 154 -409 251 -37 34 -60 66 -28 39
22 -17 29 0 10 23 -17 20 -1 7 117 -90 80 -66 231 -151 329 -184 142 -49 230
-63 391 -64 127 0 171 4 245 22 271 67 455 187 637 415 39 48 72 87 75 87 2 0
1 -4 -2 -10 -3 -5 -2 -10 4 -10 6 0 15 9 21 20 10 18 26 30 18 13z m-564 -44
c-13 -21 -189 -98 -259 -113 -97 -20 -150 -25 -166 -15 -9 5 9 9 47 9 81 0
220 41 309 90 79 44 79 44 69 29z m-481 -126 c-7 -2 -19 -2 -25 0 -7 3 -2 5
12 5 14 0 19 -2 13 -5z m1227 -26 c0 -2 -12 -14 -27 -28 l-28 -24 24 28 c23
25 31 32 31 24z m-2230 -157 c47 -47 117 -107 157 -134 70 -48 82 -66 43 -66
-13 0 -18 -5 -14 -15 5 -11 10 -13 19 -5 8 7 12 5 12 -5 0 -11 -12 -15 -40
-15 -34 0 -39 -3 -34 -19 5 -20 -19 -23 -31 -4 -4 6 -23 18 -42 28 -59 30
-231 184 -223 200 4 5 3 7 -2 3 -7 -7 -81 68 -84 85 -1 4 22 28 51 52 l53 44
25 -32 c13 -18 63 -70 110 -117z m2180 97 c0 -1 -39 -41 -87 -87 l-88 -85 85
88 c79 81 90 92 90 84z m-900 -137 c13 -19 33 -32 56 -36 41 -7 52 -21 33 -40
-9 -9 -44 -14 -99 -16 -81 -3 -85 -2 -88 19 -4 25 46 102 65 103 6 0 21 -13
33 -30z m-634 -2 c8 -12 -24 -40 -37 -32 -5 3 -9 14 -9 25 0 21 34 27 46 7z
m217 -76 c-4 -28 -9 -40 -15 -34 -7 7 -5 23 3 46 16 45 19 42 12 -12z m1037
-36 c0 -2 -8 -10 -17 -17 -16 -13 -17 -12 -4 4 13 16 21 21 21 13z m-1630 -56
c15 -11 65 -38 111 -60 45 -22 78 -40 71 -40 -6 0 -45 16 -86 36 -42 19 -81
32 -87 28 -7 -4 -9 -3 -6 3 4 6 -6 16 -24 22 -17 6 -28 15 -24 21 9 14 13 13
45 -10z m-356 -88 c2 -4 -4 -8 -14 -8 -10 0 -16 4 -14 8 3 4 9 8 14 8 5 0 11
-4 14 -8z m621 -37 c33 -13 53 -25 45 -25 -14 0 -121 48 -110 49 3 1 32 -10
65 -24z m125 -41 l35 -14 -35 6 c-40 7 -76 24 -50 23 8 0 31 -7 50 -15z m137
-30 c-3 -3 -12 -4 -19 -1 -8 3 -5 6 6 6 11 1 17 -2 13 -5z m510 0 c-3 -3 -12
-4 -19 -1 -8 3 -5 6 6 6 11 1 17 -2 13 -5z m-454 -11 c-7 -2 -21 -2 -30 0 -10
3 -4 5 12 5 17 0 24 -2 18 -5z m95 -10 c-10 -2 -28 -2 -40 0 -13 2 -5 4 17 4
22 1 32 -1 23 -4z m235 0 c-7 -2 -21 -2 -30 0 -10 3 -4 5 12 5 17 0 24 -2 18
-5z"/>
<path d="M1040 2565 l0 -75 69 0 c63 0 71 2 90 26 27 34 27 78 1 104 -16 16
-33 20 -90 20 l-70 0 0 -75z"/>
<path d="M1480 2580 l0 -60 73 0 c80 0 107 15 107 59 0 52 -15 61 -100 61
l-80 0 0 -60z"/>
<path d="M1482 2383 l3 -58 80 3 c66 3 83 7 98 24 21 25 22 52 1 72 -12 12
-36 16 -100 16 l-85 0 3 -57z"/>
<path d="M3658 2620 c-111 -59 -113 -205 -3 -267 114 -65 239 5 239 132 0 88
-68 155 -156 155 -24 -1 -60 -10 -80 -20z"/>
<path d="M4100 2555 l0 -85 64 0 c79 0 105 18 113 77 5 35 2 45 -20 67 -23 23
-35 26 -92 26 l-65 0 0 -85z"/>
<path d="M1780 1701 c0 -6 4 -13 10 -16 6 -3 7 1 4 9 -7 18 -14 21 -14 7z"/>
<path d="M1582 1391 c-11 -7 -11 -9 0 -14 9 -3 15 1 15 9 0 8 -1 14 -1 14 -1
0 -7 -4 -14 -9z"/>
<path d="M1660 1355 c-7 -9 -8 -15 -2 -15 5 0 12 7 16 15 3 8 4 15 2 15 -2 0
-9 -7 -16 -15z"/>
<path d="M1162 3285 c-17 -37 -14 -45 4 -12 9 16 14 31 11 33 -2 2 -9 -7 -15
-21z"/>
</g>
</svg>
